{"title":"Unbroken.2014.BRRip.XviD.MP3-RARBG","uid":11763770,"size":1871011576,"categoryP":"video","categoryS":"movies","magnet":"?xt=urn:btih:33608c68cf60b5b200a9d373e25a18d75a788983&amp;dn=Unbroken.2014.BRRip.XviD.MP3-RARBG&amp;tr=udp%3A%2F%2Ftracker.openbittorrent.com%3A80&amp;tr=udp%3A%2F%2Fopen.demonii.com%3A1337&amp;tr=udp%3A%2F%2Ftracker.coppersurfer.tk%3A6969&amp;tr=udp%3A%2F%2Fexodus.desync.com%3A6969","seeders":6,"leechers":0,"uploader":"vickey1992","files":8,"time":1426663522,"description":"MediaInfo:\n\nVideo\nID : 0\nFormat : MPEG-4 Visual\nFormat profile : Simple@L5\nFormat settings, BVOP : No\nFormat settings, QPel : No\nFormat settings, GMC : No warppoints\nFormat settings, Matrix : Default (H.263)\nCodec ID : XVID\nCodec ID/Hint : XviD\nDuration : 2h 17mn\nBit rate : 1 598 Kbps\nWidth : 720 pixels\nHeight : 302 pixels\nDisplay aspect ratio : 2.40:1\nOriginal display aspect ratio : 2.40:1\nFrame rate : 23.976 fps\nColor space : YUV\nChroma subsampling : 4:2:0\nBit depth : 8 bits\nScan type : Progressive\nCompression mode : Lossy\nBits/(Pixel*Frame) : 0.307\nStream size : 1.53 GiB (89%)\nTitle : RARBG.COM - Unbroken.2014.BRRip.XviD.MP3-RARBG\nWriting library : Lavc56.19.100\n\nAudio\nID : 1\nFormat : MPEG Audio\nFormat version : Version 1\nFormat profile : Layer 3\nMode : Joint stereo\nCodec ID : 55\nCodec ID/Hint : MP3\nDuration : 2h 17mn\nBit rate mode : Constant\nBit rate : 192 Kbps\nChannel(s) : 2 channels\nSampling rate : 48.0 KHz\nCompression mode : Lossy\nStream size : 189 MiB (11%)\nAlignment : Aligned on interleaves\nInterleave, duration : 24 ms (0.58 video frame)\nInterleave, preload duration : 24 ms\nTitle : RARBG.COM - Unbroken.2014.BRRip.XviD.MP3-RARBG","torrent":{"xt":"urn:btih:33608c68cf60b5b200a9d373e25a18d75a788983","amp;dn":"Unbroken.2014.BRRip.XviD.MP3-RARBG","amp;tr":["udp%3A%2F%2Ftracker.openbittorrent.com%3A80","udp%3A%2F%2Fopen.demonii.com%3A1337","udp%3A%2F%2Ftracker.coppersurfer.tk%3A6969","udp%3A%2F%2Fexodus.desync.com%3A6969"],"infoHash":"33608c68cf60b5b200a9d373e25a18d75a788983","infoHashBuffer":{"type":"Buffer","data":[51,96,140,104,207,96,181,178,0,169,211,115,226,90,24,215,90,120,137,131]},"announce":[],"urlList":[]}}